<svg width="52" height="36" viewBox="0 0 52 36" fill="none" xmlns="http://www.w3.org/2000/svg">
<path fill-rule="evenodd" clip-rule="evenodd" d="M51.5858 0.992411C51.5816 0.440142 51.1305 -0.00416233 50.5782 2.94177e-05L41.5785 0.0683372C41.0262 0.0725289 40.5819 0.523629 40.5861 1.0759C40.5903 1.62817 41.0414 2.07247 41.5936 2.06828L48.1792 2.0183L23.1621 27.4181L16.5063 20.0228C16.4575 19.9081 16.3864 19.8006 16.2929 19.7071C16.0949 19.5091 15.8344 19.4115 15.5749 19.4143C15.3159 19.3978 15.0507 19.4816 14.8425 19.669C14.7442 19.7574 14.6675 19.861 14.6128 19.973L0.292893 34.2929C-0.0976308 34.6834 -0.0976312 35.3166 0.292893 35.7071C0.683417 36.0976 1.31658 36.0976 1.70711 35.7071L15.5094 21.9048L22.4302 29.5946C22.7997 30.0051 23.432 30.0384 23.8425 29.669C23.9598 29.5634 24.0463 29.4364 24.1014 29.2992C24.1402 29.2699 24.1773 29.2375 24.2125 29.2018L49.6041 3.42173L49.6541 10.0073C49.6583 10.5596 50.1094 11.0039 50.6617 10.9997C51.214 10.9955 51.6583 10.5444 51.6541 9.99215L51.5858 0.992411ZM48.3379 13.1058C48.72 12.7071 48.7065 12.074 48.3078 11.6919C47.909 11.3098 47.276 11.3232 46.8939 11.722L25.2777 34.278C24.8956 34.6768 24.909 35.3098 25.3078 35.6919C25.7065 36.074 26.3395 36.0606 26.7217 35.6618L48.3379 13.1058ZM51.2992 19.1022C51.6794 18.7016 51.6629 18.0686 51.2623 17.6884C50.8617 17.3082 50.2287 17.3247 49.8485 17.7253L35.273 33.0819C34.8928 33.4825 34.9093 34.1155 35.3099 34.4957C35.7105 34.8759 36.3434 34.8593 36.7236 34.4588L51.2992 19.1022ZM50.3204 27.6784C50.7262 28.0531 50.7514 28.6858 50.3767 29.0915L44.2944 35.6778C43.9197 36.0836 43.287 36.1087 42.8813 35.7341C42.4755 35.3594 42.4504 34.7267 42.8251 34.321L48.9073 27.7347C49.282 27.3289 49.9147 27.3037 50.3204 27.6784ZM15.8161 28.0915C16.1908 27.6858 16.1656 27.0531 15.7599 26.6784C15.3542 26.3037 14.7215 26.3289 14.3468 26.7347L8.26451 33.321C7.88982 33.7267 7.91499 34.3594 8.32073 34.7341C8.72647 35.1087 9.35913 35.0836 9.73382 34.6778L15.8161 28.0915ZM20.8898 32.0622C21.2499 31.6434 21.2023 31.012 20.7835 30.652C20.3647 30.2919 19.7334 30.3395 19.3733 30.7583L17.238 33.2417C16.8779 33.6605 16.9255 34.2919 17.3443 34.652C17.7631 35.012 18.3944 34.9644 18.7545 34.5456L20.8898 32.0622Z" fill="#94B88F"/>
</svg>
