<svg width="19" height="19" viewBox="0 0 19 19" fill="none" xmlns="http://www.w3.org/2000/svg">
<circle cx="9.5" cy="9.5" r="9" stroke="#FF4958"/>
<path d="M10.3271 6.60352V14H8.67285V6.60352H10.3271ZM8.56348 4.66211C8.56348 4.41146 8.64551 4.2041 8.80957 4.04004C8.97819 3.87142 9.21061 3.78711 9.50684 3.78711C9.7985 3.78711 10.0286 3.87142 10.1973 4.04004C10.3659 4.2041 10.4502 4.41146 10.4502 4.66211C10.4502 4.9082 10.3659 5.11328 10.1973 5.27734C10.0286 5.44141 9.7985 5.52344 9.50684 5.52344C9.21061 5.52344 8.97819 5.44141 8.80957 5.27734C8.64551 5.11328 8.56348 4.9082 8.56348 4.66211Z" fill="#FF4958"/>
</svg>
