<svg width="15" height="18" viewBox="0 0 15 18" fill="none" xmlns="http://www.w3.org/2000/svg">
<path d="M4.51926 15.1605L4.5194 15.1606C4.95464 15.5794 5.42282 16.0188 5.91063 16.3548C6.40389 16.6945 6.85835 16.8864 7.26544 16.8864C7.6725 16.8864 8.12693 16.6945 8.61884 16.3551C9.10518 16.0195 9.57131 15.5803 10.0016 15.1623L10.0034 15.1605C12.316 12.9368 14.7262 9.54241 13.8305 5.59238C13.0352 2.09349 9.98772 0.5 7.26544 0.5H7.26543H7.26543H7.26542H7.26542H7.26542H7.26541H7.26541H7.2654H7.2654H7.2654H7.26539H7.26539H7.26538H7.26538H7.26537H7.26537H7.26537H7.26536H7.26536H7.26535H7.26535H7.26534H7.26534H7.26533H7.26533H7.26532H7.26532H7.26531H7.26531H7.2653H7.26529H7.26529H7.26528H7.26527H7.26527H7.26526H7.26526H7.26525H7.26525H7.26525H7.26524H7.26524H7.26523H7.26523H7.26523H7.26522H7.26522H7.26521H7.26521H7.26521H7.2652H7.2652H7.26519H7.26519H7.26518H7.26518H7.26517H7.26517H7.26516H7.26516H7.26515H7.26515H7.26514H7.26514H7.26513H7.26513H7.26512H7.26512H7.26511H7.2651H7.2651H7.26509H7.26509H7.26508H7.26508H7.26507H7.26506H7.26506H7.26505H7.26504H7.26504H7.26503H7.26503H7.26502H7.26501H7.26501H7.265H7.26499H7.26498H7.26498H7.26497H7.26496H7.26496H7.26495H7.26494H7.26493H7.26493H7.26492H7.26491H7.2649H7.2649H7.26489H7.26488H7.26487H7.26486H7.26486H7.26485H7.26484H7.26483H7.26482H7.26481H7.26481H7.2648H7.26479H7.26478H7.26477H7.26476H7.26475H7.26474H7.26473H7.26472H7.26471H7.2647H7.2647H7.26469H7.26468H7.26467H7.26466H7.26465H7.26464H7.26463H7.26461H7.2646H7.26459H7.26458H7.26457H7.26456H7.26455H7.26454H7.26453H7.26452H7.26451H7.2645H7.26448H7.26447H7.26446H7.26445H7.26444H7.26443H7.26441H7.2644H7.26439H7.26438H7.26437H7.26435H7.26434H7.26433H7.26432H7.2643H7.26429H7.26428H7.26426H7.26425H7.26424H7.26422H7.26421H7.2642H7.26418H7.26417H7.26415H7.26414H7.26413H7.26411H7.2641H7.26408H7.26407H7.26405H7.26404H7.26403H7.26401H7.264H7.26398H7.26397H7.26395H7.26393H7.26392H7.2639H7.26389H7.26387H7.26386H7.26384H7.26382H7.26381H7.26379H7.26377H7.26376H7.26374H7.26372H7.26371H7.26369H7.26367H7.26366H7.26364H7.26362H7.2636H7.26359H7.26357H7.26355H7.26353H7.26351H7.26349H7.26348H7.26346H7.26344H7.26342H7.2634H7.26338H7.26336H7.26334H7.26332H7.26331H7.26329H7.26327H7.26325H7.26323H7.26321H7.26319H7.26317H7.26314H7.26312H7.2631H7.26308H7.26306H7.26304H7.26302H7.263H7.26298H7.26296H7.26293H7.26291H7.26289H7.26287H7.26285H7.26282H7.2628H7.26278H7.26276H7.26273H7.26271H7.26269H7.26266H7.26264H7.26262H7.26259H7.26257H7.26254H7.26252H7.2625H7.26247H7.26245H7.26242H7.2624H7.26237H7.26235H7.26232H7.2623H7.26227H7.26225H7.26222H7.2622H7.26217H7.26214H7.26212H7.26209H7.26206H7.26204H7.26201H7.26198H7.26196H7.26193H7.2619H7.26188H7.26185H7.26182H7.26179H7.26176H7.26174H7.26171H7.26168H7.26165H7.26162H7.26159H7.26156H7.26154H7.26151H7.26148H7.26145H7.26142H7.26139H7.26136H7.26133H7.2613H7.26127H7.26124H7.2612H7.26117H7.26114H7.26111H7.26108H7.26105H7.26102H7.26098H7.26095H7.26092H7.26089H7.26086H7.26082H7.26079H7.26076H7.26072H7.26069H7.26066H7.26062H7.26059H7.26056H7.26052H7.26049H7.26045H7.26042H7.26038H7.26035H7.26031H7.26028H7.26024H7.26021H7.26017H7.26014H7.2601H7.26006H7.26003H7.25999H7.25996H7.25992H7.25988H7.25984H7.25981H7.25977H7.25973H7.25969H7.25966H7.25962H7.25958H7.25954H7.2595H7.25946H7.25943H7.25939H7.25935H7.25931H7.25927H7.25923H7.25919H7.25915H7.25911H7.25907H7.25903H7.25899H7.25894H7.2589H7.25886H7.25882H7.25878H7.25874H7.25869H7.25865H7.25861H7.25857H7.25852H7.25848H7.25844H7.2584H7.25835H7.25831H7.25826H7.25822H7.25818H7.25813H7.25809H7.25804H7.258H7.25795H7.25791H7.25786H7.25782H7.25777H7.25772H7.25768H7.25763H7.25759H7.25754H7.25749H7.25744H7.2574H7.25735H7.2573H7.25725C4.54182 0.5 1.48723 2.0864 0.69215 5.5842L4.51926 15.1605ZM4.51926 15.1605C2.20703 12.9372 -0.203452 9.53461 0.692094 5.58445L4.51926 15.1605ZM4.18816 7.00364C4.18816 8.70341 5.56566 10.0809 7.26544 10.0809C8.96521 10.0809 10.3427 8.70341 10.3427 7.00364C10.3427 5.30386 8.96522 3.92636 7.26544 3.92636C5.56566 3.92636 4.18816 5.30386 4.18816 7.00364Z" stroke="#AFB4C6"/>
</svg>
